<svg width="135" height="39" viewBox="0 0 135 39" fill="none" xmlns="http://www.w3.org/2000/svg">
<path d="M23.0909 19.3636C23.0909 21.8712 22.6212 24.0189 21.6818 25.8068C20.75 27.5871 19.4773 28.9508 17.8636 29.8977C16.2576 30.8447 14.4356 31.3182 12.3977 31.3182C10.3598 31.3182 8.53409 30.8447 6.92045 29.8977C5.31439 28.9432 4.04167 27.5758 3.10227 25.7955C2.17045 24.0076 1.70455 21.8636 1.70455 19.3636C1.70455 16.8561 2.17045 14.7121 3.10227 12.9318C4.04167 11.1439 5.31439 9.77651 6.92045 8.82954C8.53409 7.88257 10.3598 7.40909 12.3977 7.40909C14.4356 7.40909 16.2576 7.88257 17.8636 8.82954C19.4773 9.77651 20.75 11.1439 21.6818 12.9318C22.6212 14.7121 23.0909 16.8561 23.0909 19.3636ZM18.8523 19.3636C18.8523 17.5985 18.5758 16.1098 18.0227 14.8977C17.4773 13.678 16.7197 12.7576 15.75 12.1364C14.7803 11.5076 13.6629 11.1932 12.3977 11.1932C11.1326 11.1932 10.0152 11.5076 9.04545 12.1364C8.07576 12.7576 7.31439 13.678 6.76136 14.8977C6.21591 16.1098 5.94318 17.5985 5.94318 19.3636C5.94318 21.1288 6.21591 22.6212 6.76136 23.8409C7.31439 25.053 8.07576 25.9735 9.04545 26.6023C10.0152 27.2235 11.1326 27.5341 12.3977 27.5341C13.6629 27.5341 14.7803 27.2235 15.75 26.6023C16.7197 25.9735 17.4773 25.053 18.0227 23.8409C18.5758 22.6212 18.8523 21.1288 18.8523 19.3636ZM41.7472 7.72727H45.9631V22.9318C45.9631 24.5985 45.5691 26.0644 44.7812 27.3295C44.0009 28.5947 42.9025 29.5833 41.4858 30.2955C40.0691 31 38.4138 31.3523 36.5199 31.3523C34.6184 31.3523 32.9593 31 31.5426 30.2955C30.1259 29.5833 29.0275 28.5947 28.2472 27.3295C27.4669 26.0644 27.0767 24.5985 27.0767 22.9318V7.72727H31.2926V22.5795C31.2926 23.5492 31.5047 24.4129 31.929 25.1705C32.3608 25.928 32.9669 26.5227 33.7472 26.9545C34.5275 27.3788 35.4517 27.5909 36.5199 27.5909C37.5881 27.5909 38.5123 27.3788 39.2926 26.9545C40.0805 26.5227 40.6866 25.928 41.1108 25.1705C41.535 24.4129 41.7472 23.5492 41.7472 22.5795V7.72727ZM49.5227 11.2614V7.72727H68.0909V11.2614H60.8977V31H56.7159V11.2614H49.5227ZM71.6705 31V7.72727H75.8864V27.4659H86.1364V31H71.6705ZM93.6591 31H89.1591L97.3523 7.72727H102.557L110.761 31H106.261L100.045 12.5H99.8636L93.6591 31ZM93.8068 21.875H106.08V25.2614H93.8068V21.875Z" fill="white"/>
<path d="M134.295 31.2727H129.534L123.841 20.9773H123.614L117.92 31.2727H113.159L121.625 16.6818V8L125.83 8V16.6818L134.295 31.2727Z" fill="#12DD00"/>
</svg>
